<?xml version="1.0" encoding="utf-8"?>
<!-- Generator: Adobe Illustrator 21.0.2, SVG Export Plug-In . SVG Version: 6.00 Build 0)  -->
<svg version="1.1" id="Layer_1" xmlns="http://www.w3.org/2000/svg" xmlns:xlink="http://www.w3.org/1999/xlink" x="0px" y="0px"
	 viewBox="0 0 24 24" style="enable-background:new 0 0 24 24;" xml:space="preserve">
<style type="text/css">
	.st0{fill:#FFFFFF;}
</style>
<path class="st0" d="M12,2c5.5,0,10,4.5,10,10s-4.5,10-10,10S2,17.5,2,12S6.5,2,12,2z M12,0C5.4,0,0,5.4,0,12s5.4,12,12,12
	s12-5.4,12-12S18.6,0,12,0z M12,6c-3.3,0-6,2.7-6,6c0,3.3,2.7,6,6,6s6-2.7,6-6C18,8.7,15.3,6,12,6z M16.9,11.7
	c-1.3-0.2-2.5-0.2-3.6,0c-0.1-0.3-0.2-0.6-0.4-0.8c1.2-0.5,2.1-1.2,2.8-2C16.5,9.6,16.9,10.6,16.9,11.7z M15,8.1
	c-0.6,0.8-1.4,1.4-2.5,1.8C12,9,11.4,8.1,10.8,7.2C11.2,7.1,11.6,7,12,7C13.1,7,14.2,7.4,15,8.1z M9.8,7.6c0.7,0.9,1.3,1.8,1.8,2.7
	c-1.2,0.4-2.7,0.5-4.3,0.6C7.5,9.4,8.5,8.2,9.8,7.6z M7,12l0-0.1c1.9,0,3.6-0.2,5-0.7c0.1,0.2,0.2,0.5,0.3,0.7
	c-1.7,0.5-3.1,1.6-4.2,3.2C7.5,14.3,7,13.2,7,12z M9,15.9c1-1.5,2.2-2.5,3.8-3c0.5,1.2,0.8,2.5,1,3.7C12.1,17.3,10.3,17,9,15.9z
	 M14.8,16.1c-0.2-1.2-0.5-2.3-1-3.4c0.9-0.1,2-0.1,3.1,0.1C16.7,14.2,15.9,15.4,14.8,16.1z"/>
</svg>
