<?xml version="1.0" encoding="utf-8"?>
<!-- Generator: Adobe Illustrator 21.0.2, SVG Export Plug-In . SVG Version: 6.00 Build 0)  -->
<svg version="1.1" id="Layer_1" xmlns="http://www.w3.org/2000/svg" xmlns:xlink="http://www.w3.org/1999/xlink" x="0px" y="0px"
	 viewBox="0 0 24 24" style="enable-background:new 0 0 24 24;" xml:space="preserve">
<style type="text/css">
	.st0{fill:#FFFFFF;}
</style>
<path class="st0" d="M12,2c5.5,0,10,4.5,10,10s-4.5,10-10,10S2,17.5,2,12S6.5,2,12,2z M12,0C5.4,0,0,5.4,0,12s5.4,12,12,12
	s12-5.4,12-12S18.6,0,12,0z M9.5,11.5v1.2h2c-0.1,0.5-0.6,1.5-2,1.5c-1.2,0-2.2-1-2.2-2.2s1-2.2,2.2-2.2c0.7,0,1.1,0.3,1.4,0.5
	l0.9-0.9c-0.6-0.6-1.4-0.9-2.3-0.9C7.6,8.5,6,10.1,6,12s1.6,3.5,3.5,3.5c2,0,3.4-1.4,3.4-3.4c0-0.2,0-0.4-0.1-0.6L9.5,11.5L9.5,11.5
	z M9.5,11.5l8.5,1h-1.5V14h-1v-1.5H14v-1h1.5V10h1v1.5H18v1L9.5,11.5z"/>
</svg>
