<?xml version="1.0" encoding="utf-8"?>
<!-- Generator: Adobe Illustrator 21.0.2, SVG Export Plug-In . SVG Version: 6.00 Build 0)  -->
<svg version="1.1" id="Layer_1" xmlns="http://www.w3.org/2000/svg" xmlns:xlink="http://www.w3.org/1999/xlink" x="0px" y="0px"
	 viewBox="0 0 24 24" style="enable-background:new 0 0 24 24;" xml:space="preserve">
<style type="text/css">
	.st0{fill:#FFFFFF;}
</style>
<path class="st0" d="M12,2c5.5,0,10,4.5,10,10s-4.5,10-10,10S2,17.5,2,12S6.5,2,12,2z M12,0C5.4,0,0,5.4,0,12s5.4,12,12,12
	s12-5.4,12-12S18.6,0,12,0z M10,8c0,0.6-0.4,1-1,1S8,8.6,8,8c0-0.6,0.4-1,1-1S10,7.4,10,8z M10,10H8v6h2V10z M13,10h-2v6h2v-2.9
	c0-1.7,2-1.9,2,0V16h2v-3.4c0-3.3-3.1-3.2-4-1.5C13,11.1,13,10,13,10z"/>
</svg>
