<?xml version="1.0" encoding="utf-8"?>
<!-- Generator: Adobe Illustrator 21.0.2, SVG Export Plug-In . SVG Version: 6.00 Build 0)  -->
<svg version="1.1" id="Layer_1" xmlns="http://www.w3.org/2000/svg" xmlns:xlink="http://www.w3.org/1999/xlink" x="0px" y="0px"
	 viewBox="0 0 24 24" style="enable-background:new 0 0 24 24;" xml:space="preserve">
<style type="text/css">
	.st0{fill:#FFFFFF;}
</style>
<path class="st0" d="M12,2c5.5,0,10,4.5,10,10s-4.5,10-10,10S2,17.5,2,12S6.5,2,12,2z M12,0C5.4,0,0,5.4,0,12s5.4,12,12,12
	s12-5.4,12-12S18.6,0,12,0z M18.5,8.8c-0.4,0.2-0.9,0.3-1.4,0.4c0.5-0.3,0.9-0.8,1.1-1.4c-0.5,0.3-1,0.5-1.6,0.6
	c-0.4-0.5-1.1-0.8-1.8-0.8c-1.6,0-2.8,1.5-2.4,3c-2-0.1-3.9-1.1-5.1-2.6C6.7,9.2,7,10.6,8.1,11.4c-0.4,0-0.8-0.1-1.1-0.3
	c0,1.1,0.8,2.2,2,2.4c-0.3,0.1-0.7,0.1-1.1,0c0.3,1,1.2,1.7,2.3,1.7c-1,0.8-2.3,1.2-3.6,1c1.1,0.7,2.4,1.1,3.8,1.1
	c4.6,0,7.2-3.9,7-7.3C17.8,9.7,18.2,9.3,18.5,8.8z"/>
</svg>
